<?xml version="1.0" standalone="no"?>
<!DOCTYPE svg PUBLIC "-//W3C//DTD SVG 20010904//EN"
 "http://www.w3.org/TR/2001/REC-SVG-20010904/DTD/svg10.dtd">
<svg version="1.0" xmlns="http://www.w3.org/2000/svg"
 width="761.000000pt" height="761.000000pt" viewBox="0 0 761.000000 761.000000"
 preserveAspectRatio="xMidYMid meet">
<metadata>
Created by potrace 1.11, written by Peter Selinger 2001-2013
</metadata>
<g transform="translate(0.000000,761.000000) scale(0.100000,-0.100000)"
fill="#000000" stroke="none">
<path d="M103 5149 c-17 -5 -46 -26 -62 -46 l-31 -38 0 -1260 0 -1260 30 -37
c22 -27 42 -39 80 -48 38 -9 550 -12 2164 -12 1163 0 2122 3 2133 6 10 4 54
56 98 117 106 147 161 221 177 239 7 9 22 29 32 45 11 17 24 35 30 41 6 7 43
56 81 109 39 53 82 111 97 128 15 18 28 37 28 44 0 6 4 13 8 15 4 2 23 25 42
52 19 28 42 58 50 67 8 9 38 48 65 85 28 38 52 71 55 74 3 3 14 18 24 35 11
16 23 34 28 40 5 5 33 42 64 82 53 69 55 71 84 62 19 -7 35 -7 47 -1 12 7 392
11 1069 11 662 0 1060 4 1076 10 33 12 39 29 22 63 -9 17 -10 29 -4 33 16 10
12 61 -6 76 -14 11 -198 14 -1078 14 -638 0 -1067 4 -1076 10 -8 5 -29 8 -46
6 -26 -2 -36 5 -67 46 -20 26 -41 53 -46 59 -4 6 -26 35 -47 65 -21 30 -43 59
-49 66 -5 6 -21 28 -35 48 -14 20 -46 64 -72 98 -27 34 -51 67 -55 72 -12 15
-149 201 -200 270 -134 181 -186 252 -201 273 -19 26 -67 91 -80 107 -4 6 -29
40 -56 78 l-48 67 -2146 -1 c-1278 0 -2160 -5 -2179 -10z m4513 -1165 c31 -23
33 -35 8 -49 -40 -23 -71 -66 -67 -93 6 -34 6 -50 0 -85 -4 -23 3 -32 46 -64
l50 -37 -27 -23 c-15 -13 -31 -21 -36 -18 -5 3 -11 1 -15 -5 -4 -6 -11 -8 -16
-5 -5 4 -9 2 -9 -3 0 -5 -28 -8 -62 -7 -97 3 -174 44 -221 117 -19 31 -25 178
-7 178 6 0 10 6 10 12 0 17 68 77 103 93 17 7 67 11 123 10 77 -1 99 -5 120
-21z"/>
</g>
</svg>
